<svg xmlns="http://www.w3.org/2000/svg" xmlns:xlink="http://www.w3.org/1999/xlink" width="500" zoomAndPan="magnify" viewBox="0 0 375 374.999991" height="500" preserveAspectRatio="xMidYMid meet" version="1.0"><defs><clipPath id="673f337a79"><path d="M 182.21875 48.882812 L 359.96875 48.882812 L 359.96875 327 L 182.21875 327 Z M 182.21875 48.882812 " clip-rule="nonzero"/></clipPath><clipPath id="19a1be2cbc"><path d="M 51 173 L 114 173 L 114 327.882812 L 51 327.882812 Z M 51 173 " clip-rule="nonzero"/></clipPath><clipPath id="fc2e6fb56b"><path d="M 63 48.882812 L 101 48.882812 L 101 135 L 63 135 Z M 63 48.882812 " clip-rule="nonzero"/></clipPath><clipPath id="dc7899fdd9"><path d="M 27 48.882812 L 137 48.882812 L 137 195 L 27 195 Z M 27 48.882812 " clip-rule="nonzero"/></clipPath></defs><g clip-path="url(#673f337a79)"><path fill="#953541" d="M 331.355469 310.617188 C 331.355469 310.617188 333.191406 322.652344 301.484375 322.390625 C 294.40625 326.054688 287.070312 327.886719 274.492188 324.746094 C 257.621094 320.535156 255.101562 313.492188 255.101562 313.492188 C 255.101562 313.492188 245.945312 313.164062 231.285156 312.703125 C 233.371094 305.101562 234.726562 284.773438 234.726562 284.773438 C 234.726562 284.773438 250.160156 240.25 256.679688 220.308594 C 256.742188 209.925781 256.714844 201.085938 256.542969 195.480469 C 255.792969 171.207031 251.492188 151.214844 251.074219 149.324219 C 251.046875 149.328125 251.019531 149.324219 250.988281 149.316406 L 240.246094 181.308594 C 239.382812 191.101562 238.800781 201.300781 238.265625 211.898438 C 238.265625 211.898438 232.5 217.65625 228.832031 237.28125 C 225.121094 257.144531 223.855469 283.726562 223.855469 283.726562 C 223.855469 283.726562 213.894531 301.652344 212.324219 310.289062 C 212.265625 310.613281 212.222656 310.921875 212.171875 311.238281 C 201.460938 308.957031 198.054688 304.210938 196.207031 302.832031 L 198.175781 296.550781 C 198.175781 296.550781 188.742188 295.960938 182.253906 286.542969 C 182.253906 286.542969 221.757812 204.113281 233.550781 160.546875 C 240.203125 135.957031 258.5625 103.96875 262.339844 97.535156 C 262.6875 93.191406 261.605469 89.914062 260.539062 86.296875 C 260.28125 85.421875 260.03125 84.511719 259.789062 83.601562 C 259.785156 83.597656 259.785156 83.597656 259.785156 83.597656 C 259.585938 82.847656 259.390625 82.09375 259.207031 81.34375 C 259.203125 81.335938 259.199219 81.324219 259.199219 81.3125 C 259.117188 80.992188 259.042969 80.671875 258.964844 80.355469 C 259.566406 77.933594 260.34375 74.753906 261.011719 71.871094 C 261.445312 70.007812 261.832031 68.273438 262.09375 66.953125 C 262.277344 66.046875 262.402344 65.328125 262.4375 64.90625 C 262.4375 64.90625 261.042969 56.320312 256.832031 50.292969 C 257.414062 50.246094 258.011719 50.199219 258.632812 50.148438 C 259.773438 52.003906 261.695312 55.847656 263.617188 62.941406 C 263.617188 62.941406 265.089844 63.605469 267.609375 65.085938 C 270.835938 66.984375 275.777344 70.230469 281.542969 75.148438 C 281.683594 75.265625 281.820312 75.382812 281.960938 75.503906 C 281.960938 75.503906 282.023438 75.410156 282.136719 75.242188 C 283.121094 73.773438 288.003906 66.425781 289.246094 63.320312 C 289.316406 63.136719 289.382812 62.964844 289.429688 62.8125 C 290.175781 60.363281 289.621094 51.9375 289.386719 48.882812 C 289.914062 48.902344 290.445312 48.933594 290.976562 48.980469 C 291.152344 51.996094 291.457031 58.273438 291.261719 62.417969 C 291.261719 62.417969 292.464844 63.308594 293.777344 64.785156 C 294.472656 65.566406 295.195312 66.511719 295.792969 67.574219 C 295.816406 67.636719 295.847656 67.6875 295.875 67.746094 C 296.136719 68.367188 296.351562 69.054688 296.511719 69.804688 C 296.753906 70.925781 296.867188 72.195312 296.832031 73.605469 C 296.824219 73.8125 296.8125 74.035156 296.789062 74.269531 C 296.785156 74.324219 296.78125 74.378906 296.777344 74.433594 C 296.753906 74.667969 296.726562 74.914062 296.691406 75.171875 C 296.6875 75.199219 296.683594 75.226562 296.679688 75.253906 C 296.648438 75.496094 296.609375 75.75 296.566406 76.011719 C 296.554688 76.078125 296.546875 76.148438 296.535156 76.214844 C 296.488281 76.5 296.4375 76.789062 296.382812 77.09375 C 296.371094 77.148438 296.359375 77.207031 296.347656 77.265625 C 296.300781 77.53125 296.246094 77.804688 296.191406 78.085938 C 296.175781 78.167969 296.160156 78.25 296.144531 78.332031 C 296.082031 78.648438 296.015625 78.972656 295.949219 79.304688 C 295.925781 79.410156 295.902344 79.519531 295.878906 79.628906 C 295.828125 79.886719 295.773438 80.144531 295.71875 80.40625 C 295.621094 80.878906 295.523438 81.359375 295.417969 81.851562 C 295.417969 81.851562 295.417969 81.851562 295.417969 81.855469 C 295.335938 81.917969 295.25 81.96875 295.167969 82.03125 C 295.214844 82.15625 295.257812 82.28125 295.304688 82.410156 C 294.363281 86.957031 293.359375 92.226562 293.488281 96.707031 C 294.144531 101.277344 299.910156 115.015625 303.316406 126.527344 C 306.722656 138.042969 313.734375 167.023438 313.734375 167.023438 C 313.734375 167.023438 344 255.535156 359.917969 294.390625 C 359.917969 294.390625 350.878906 305.578125 331.355469 310.617188 Z M 331.355469 310.617188 " fill-opacity="1" fill-rule="nonzero"/></g><path fill="#4f484a" d="M 234.730469 284.773438 C 234.730469 284.773438 250.164062 240.25 256.679688 220.308594 C 256.457031 257.179688 255.101562 313.492188 255.101562 313.492188 C 255.101562 313.492188 245.949219 313.164062 231.285156 312.703125 C 233.371094 305.101562 234.730469 284.773438 234.730469 284.773438 Z M 250.871094 149.210938 C 250.898438 149.273438 250.941406 149.300781 250.988281 149.316406 C 251.019531 149.324219 251.046875 149.332031 251.078125 149.324219 C 251.160156 149.304688 251.226562 149.234375 251.207031 149.117188 C 250.550781 145.066406 249.828125 141.042969 249.433594 136.953125 C 249.042969 132.917969 248.726562 128.867188 248.414062 124.828125 C 248.410156 124.757812 248.308594 124.757812 248.304688 124.828125 C 248.164062 128.980469 248.230469 133.097656 248.609375 137.242188 C 248.972656 141.238281 249.367188 145.453125 250.871094 149.210938 Z M 262.945312 97.292969 C 266.527344 98.371094 270.464844 98.367188 274.175781 98.476562 C 278.714844 98.609375 283.273438 98.542969 287.804688 98.257812 C 289.382812 98.15625 290.988281 98.035156 292.527344 97.660156 C 292.871094 97.578125 292.808594 96.988281 292.445312 97.03125 C 289.0625 97.433594 285.605469 97.457031 282.207031 97.558594 C 277.664062 97.691406 273.113281 97.699219 268.574219 97.519531 C 266.71875 97.449219 264.824219 97.417969 262.984375 97.148438 C 262.890625 97.132812 262.847656 97.265625 262.945312 97.292969 Z M 329.65625 288.9375 C 328.554688 278.890625 327.269531 268.867188 325.984375 258.84375 C 324.542969 247.625 323.035156 236.417969 321.523438 225.210938 C 320.136719 214.914062 318.71875 204.621094 317.304688 194.328125 C 316.34375 187.355469 315.3125 180.390625 314.257812 173.425781 C 314.183594 172.917969 314.105469 172.410156 314.03125 171.902344 C 314.011719 171.789062 313.816406 171.8125 313.828125 171.929688 C 314.535156 178.367188 315.332031 184.792969 316.148438 191.222656 C 317.410156 201.183594 318.761719 211.132812 320.074219 221.085938 C 321.5625 232.386719 323.023438 243.695312 324.488281 255 C 325.816406 265.238281 327.082031 275.484375 328.382812 285.722656 C 329.269531 292.722656 330.183594 299.726562 330.917969 306.746094 C 330.972656 307.257812 331.035156 307.773438 331.070312 308.289062 C 331.082031 308.46875 331.363281 308.46875 331.351562 308.289062 C 330.921875 301.816406 330.363281 295.382812 329.65625 288.9375 Z M 293.164062 228.550781 C 290.171875 211.023438 286.296875 193.71875 281.4375 176.617188 C 277.464844 162.644531 273.324219 148.710938 269.535156 134.691406 C 267.394531 126.777344 265.476562 118.734375 264.488281 110.585938 C 264.378906 109.703125 264.285156 108.824219 264.195312 107.941406 C 264.195312 107.917969 264.160156 107.917969 264.164062 107.941406 C 264.855469 115.699219 266.378906 123.332031 268.230469 130.894531 C 271.410156 143.882812 275.03125 156.753906 278.605469 169.636719 C 281.039062 178.414062 283.488281 187.179688 285.546875 196.050781 C 287.546875 204.664062 289.292969 213.335938 290.84375 222.042969 C 293.765625 238.425781 296.003906 254.9375 297.753906 271.488281 C 299.042969 283.671875 300.128906 295.882812 300.773438 308.121094 C 300.828125 309.167969 300.886719 310.21875 300.921875 311.269531 C 300.941406 311.820312 301.800781 311.824219 301.78125 311.269531 C 301.386719 299.765625 300.632812 288.300781 299.558594 276.839844 C 298.046875 260.671875 295.898438 244.554688 293.164062 228.550781 Z M 295.992188 190.503906 C 294.519531 177.550781 292.945312 164.609375 291.273438 151.679688 C 289.9375 141.363281 288.542969 131.058594 287.074219 120.761719 C 286.128906 114.121094 285.167969 107.484375 284.183594 100.851562 C 284.105469 100.339844 284.03125 99.828125 283.953125 99.316406 C 283.9375 99.199219 283.761719 99.25 283.777344 99.367188 C 284.644531 105.53125 285.484375 111.703125 286.296875 117.875 C 287.605469 127.828125 288.867188 137.789062 290.101562 147.75 C 291.667969 160.390625 293.160156 173.042969 294.585938 185.703125 C 296.195312 200.003906 297.6875 214.320312 299.078125 228.648438 C 300.53125 243.609375 301.824219 258.589844 302.996094 273.578125 C 303.140625 275.414062 303.28125 277.25 303.417969 279.085938 C 303.445312 279.457031 304.027344 279.464844 304.003906 279.085938 C 303.105469 264.085938 301.902344 249.109375 300.519531 234.148438 C 299.171875 219.582031 297.640625 205.035156 295.992188 190.503906 Z M 260.699219 129.992188 C 259.335938 122.808594 257.972656 115.597656 257.0625 108.339844 C 257.054688 108.273438 256.945312 108.269531 256.953125 108.339844 C 258.246094 122.238281 260.964844 135.960938 263.804688 149.609375 C 267.039062 165.148438 270.519531 180.632812 273.964844 196.125 C 275.605469 203.503906 277.304688 210.871094 278.816406 218.28125 C 278.851562 218.453125 279.105469 218.378906 279.078125 218.207031 C 276.660156 204.042969 273.535156 190.019531 270.417969 176 C 267.015625 160.699219 263.625 145.390625 260.699219 129.992188 Z M 300.125 170.796875 C 298.859375 161.328125 297.484375 151.875 295.933594 142.449219 C 294.570312 134.15625 293.113281 125.878906 291.449219 117.640625 C 290.289062 111.886719 289.09375 106.097656 287.402344 100.46875 C 287.261719 100 287.117188 99.535156 286.964844 99.070312 C 286.960938 99.054688 286.941406 99.0625 286.945312 99.074219 C 288.566406 104.273438 289.613281 109.660156 290.660156 114.996094 C 292.222656 122.972656 293.566406 130.988281 294.820312 139.015625 C 296.296875 148.472656 297.667969 157.949219 298.921875 167.4375 C 300.164062 176.867188 301.3125 186.316406 302.300781 195.773438 C 303.15625 203.957031 303.886719 212.148438 304.453125 220.355469 C 304.511719 221.21875 304.566406 222.085938 304.617188 222.957031 C 304.640625 223.300781 305.171875 223.308594 305.164062 222.957031 C 304.914062 214.957031 304.246094 206.972656 303.449219 199.007812 C 302.503906 189.585938 301.382812 180.183594 300.125 170.796875 Z M 239.144531 183.230469 C 239.15625 183.1875 239.09375 183.171875 239.082031 183.210938 C 237.148438 189.628906 234.988281 195.980469 232.929688 202.355469 C 230.867188 208.738281 228.710938 215.085938 226.46875 221.40625 C 224.554688 226.808594 222.53125 232.171875 220.527344 237.542969 C 218.132812 243.960938 215.761719 250.390625 213.375 256.816406 C 210.785156 263.78125 208.191406 270.746094 205.597656 277.710938 C 203.9375 282.171875 202.316406 286.648438 200.621094 291.101562 C 200.539062 291.3125 200.460938 291.53125 200.371094 291.742188 C 200.1875 292.179688 200.902344 292.371094 201.085938 291.9375 C 202.675781 288.160156 204.21875 284.167969 205.695312 280.28125 C 208.289062 273.449219 210.851562 266.605469 213.402344 259.757812 C 215.882812 253.09375 218.355469 246.425781 220.828125 239.757812 C 222.449219 235.378906 224.066406 231 225.640625 226.605469 C 230.195312 213.894531 234.277344 201.011719 237.824219 187.984375 C 238.253906 186.398438 238.691406 184.8125 239.144531 183.230469 Z M 263.085938 96.953125 C 263.25 96.757812 263.421875 96.570312 263.585938 96.375 C 266.480469 93.011719 269.417969 89.667969 272.40625 86.386719 C 275.089844 83.433594 277.886719 80.585938 280.566406 77.628906 C 280.628906 77.636719 280.683594 77.578125 280.667969 77.511719 C 281.117188 77.015625 281.574219 76.519531 282.015625 76.011719 C 282.078125 75.941406 281.980469 75.839844 281.90625 75.90625 C 281.421875 76.332031 280.957031 76.777344 280.480469 77.210938 C 279.3125 75.425781 277.394531 74.082031 275.660156 72.890625 C 273.753906 71.578125 271.695312 70.539062 269.554688 69.664062 C 269.535156 69.65625 269.527344 69.6875 269.542969 69.695312 C 271.554688 70.746094 273.460938 72 275.28125 73.351562 C 276.199219 74.027344 277.070312 74.761719 277.933594 75.503906 C 278.703125 76.171875 279.421875 76.84375 280.25 77.421875 C 279.410156 78.199219 278.585938 78.988281 277.769531 79.789062 C 277.421875 79.191406 276.660156 78.828125 276.101562 78.46875 C 275.335938 77.972656 274.558594 77.496094 273.769531 77.042969 C 272.199219 76.144531 270.574219 75.394531 268.925781 74.65625 C 268.910156 74.648438 268.902344 74.667969 268.914062 74.671875 C 270.46875 75.511719 271.964844 76.476562 273.441406 77.441406 C 274.160156 77.914062 274.871094 78.398438 275.574219 78.894531 C 275.945312 79.160156 276.316406 79.429688 276.679688 79.703125 C 276.917969 79.878906 277.15625 80.039062 277.433594 80.121094 C 275.503906 82.03125 273.628906 83.992188 271.773438 85.976562 C 268.699219 89.261719 265.789062 92.636719 263.285156 96.371094 C 263.175781 96.535156 263.066406 96.691406 262.960938 96.851562 C 262.910156 96.929688 263.027344 97.023438 263.085938 96.953125 Z M 268.105469 94.65625 C 268.09375 94.671875 268.117188 94.691406 268.128906 94.675781 C 271.425781 90.53125 275.570312 87.023438 279.546875 83.546875 C 281.539062 81.808594 283.535156 80.066406 285.449219 78.238281 C 287.320312 76.457031 289.226562 74.558594 290.421875 72.242188 C 290.453125 72.175781 290.375 72.113281 290.316406 72.160156 C 288.332031 73.953125 286.59375 76.007812 284.691406 77.886719 C 282.808594 79.746094 280.824219 81.5 278.851562 83.261719 C 274.914062 86.777344 271.160156 90.328125 268.105469 94.65625 Z M 283.472656 85.105469 C 280.058594 87.457031 276.808594 89.980469 273.714844 92.734375 C 273.703125 92.746094 273.722656 92.773438 273.734375 92.761719 C 277.171875 90.148438 280.699219 87.625 284.328125 85.289062 C 287.726562 83.101562 291.570312 81.179688 293.949219 77.800781 C 294.070312 77.628906 293.824219 77.484375 293.6875 77.59375 C 292.019531 78.917969 290.472656 80.382812 288.726562 81.601562 C 286.996094 82.804688 285.207031 83.914062 283.472656 85.105469 Z M 220.890625 200.847656 C 224.882812 192.644531 228.671875 184.34375 232.367188 176.003906 C 236.085938 167.59375 239.71875 159.148438 243.324219 150.691406 C 244.976562 146.8125 246.589844 142.921875 248.246094 139.046875 C 248.335938 138.839844 248.039062 138.65625 247.9375 138.867188 C 244.496094 146.105469 241.253906 153.429688 238.0625 160.777344 C 234.273438 169.496094 230.515625 178.230469 226.734375 186.953125 C 224.738281 191.550781 222.726562 196.144531 220.65625 200.710938 C 220.585938 200.867188 220.816406 201.003906 220.890625 200.847656 Z M 220.890625 200.847656 " fill-opacity="1" fill-rule="nonzero"/><g clip-path="url(#19a1be2cbc)"><path fill="#0a1016" d="M 98.5625 193.96875 C 96.816406 193.859375 92.742188 193.535156 89.457031 190.574219 C 88.375 189.597656 87.679688 188.605469 87.015625 187.511719 C 85.601562 185.175781 83.265625 180.574219 81.921875 173.007812 C 80.574219 180.574219 78.234375 185.175781 76.828125 187.511719 C 76.164062 188.605469 75.464844 189.597656 74.378906 190.574219 C 71.097656 193.535156 67.023438 193.859375 65.277344 193.96875 C 59.167969 194.363281 54.457031 191.539062 51.484375 189.765625 C 51.40625 189.722656 51.332031 189.671875 51.257812 189.628906 C 51.964844 234.8125 52.671875 279.992188 53.375 325.179688 C 55.023438 325.925781 57.222656 326.703125 59.890625 327.105469 C 65.074219 327.886719 69.332031 326.820312 71.707031 326.019531 C 74.921875 282.945312 78.140625 239.871094 81.359375 196.796875 C 84.652344 239.832031 87.953125 282.863281 91.246094 325.902344 C 93.527344 326.488281 96.472656 327.027344 99.933594 327.105469 C 104.171875 327.199219 107.726562 326.566406 110.308594 325.902344 C 111.351562 280.296875 112.398438 234.683594 113.445312 189.078125 C 113.097656 189.3125 112.734375 189.542969 112.351562 189.765625 C 109.390625 191.539062 104.671875 194.363281 98.5625 193.96875 Z M 98.5625 193.96875 " fill-opacity="1" fill-rule="nonzero"/></g><path fill="#f3f0e8" d="M 28.820312 183.671875 L 43.417969 183.671875 L 43.417969 179.648438 C 38.550781 179.609375 33.6875 179.566406 28.820312 179.527344 Z M 28.820312 183.671875 " fill-opacity="1" fill-rule="nonzero"/><path fill="#f3f0e8" d="M 134.898438 183.671875 L 134.898438 179.527344 C 130.039062 179.566406 125.171875 179.609375 120.308594 179.652344 L 120.308594 183.671875 Z M 134.898438 183.671875 " fill-opacity="1" fill-rule="nonzero"/><path fill="#f3f0e8" d="M 94.316406 50.035156 C 92.957031 51.164062 91.476562 52.316406 89.867188 53.464844 C 87.082031 55.457031 84.394531 57.097656 81.921875 58.445312 C 79.445312 57.097656 76.757812 55.457031 73.972656 53.464844 C 72.226562 52.214844 70.632812 50.960938 69.175781 49.738281 C 68.035156 51.546875 66.464844 53.171875 65.617188 55.160156 C 65.621094 68.199219 66.878906 84.457031 71.324219 102.605469 C 73.84375 112.917969 76.964844 122.085938 80.1875 130.039062 C 80.355469 130.460938 80.527344 130.878906 80.699219 131.292969 C 80.488281 130.945312 80.289062 130.605469 80.085938 130.257812 C 79.996094 130.773438 80.703125 131.476562 80.703125 131.476562 C 81.535156 131.8125 82.082031 131.628906 82.484375 131.195312 C 85.871094 122.980469 89.171875 113.421875 91.816406 102.605469 C 96.265625 84.429688 97.527344 68.148438 97.523438 55.101562 C 96.722656 53.300781 95.859375 51.40625 94.316406 50.035156 Z M 94.316406 50.035156 " fill-opacity="1" fill-rule="nonzero"/><g clip-path="url(#fc2e6fb56b)"><path stroke-linecap="butt" transform="matrix(0.0935034, 0, 0, 0.093361, 27.059655, 48.881649)" fill="none" stroke-linejoin="miter" d="M 719.297529 12.355348 C 704.759285 24.447189 688.925967 36.790072 671.714023 49.091115 C 641.927333 70.429658 613.185057 88.002577 586.740492 102.437474 C 560.254151 88.002577 531.511875 70.429658 501.725185 49.091115 C 483.051061 35.702225 466.006223 22.271494 450.423564 9.175486 C 438.224808 28.547537 421.430629 45.953094 412.365115 67.249797 C 412.406891 206.912657 425.858945 381.051909 473.400674 575.441857 C 500.346558 685.9002 533.726033 784.099341 568.191698 869.286154 C 569.98809 873.804904 571.826259 878.281814 573.664428 882.716884 C 571.408493 878.993099 569.277888 875.352995 567.105507 871.62921 C 566.144646 877.152127 573.706204 884.683377 573.706204 884.683377 C 582.604612 888.281642 588.453331 886.315148 592.756317 881.670877 C 628.976598 793.680765 664.277794 691.297596 692.560528 575.441857 C 740.144034 380.759027 753.637864 206.368733 753.596088 66.622193 C 745.031892 47.333823 735.799272 27.041286 719.297529 12.355348 Z M 719.297529 12.355348 " stroke="#fcf8e1" stroke-width="1.89" stroke-opacity="1" stroke-miterlimit="10"/></g><path fill="#ebe7d4" d="M 81.660156 132.582031 L 81.882812 65.140625 L 82.414062 65.140625 L 82.1875 132.585938 Z M 81.660156 132.582031 " fill-opacity="1" fill-rule="nonzero"/><path fill="#2d2628" d="M 117.714844 185.929688 C 117.535156 185.824219 117.359375 185.714844 117.183594 185.597656 C 117.203125 185.789062 117.226562 185.980469 117.246094 186.171875 C 116.347656 186.96875 115.078125 188.011719 113.445312 189.078125 C 113.097656 189.3125 112.734375 189.542969 112.351562 189.765625 C 109.578125 191.425781 105.273438 194.003906 99.726562 194.003906 C 99.34375 194.003906 98.957031 193.992188 98.5625 193.96875 C 96.816406 193.859375 92.742188 193.535156 89.457031 190.574219 C 88.375 189.597656 87.679688 188.605469 87.015625 187.511719 C 85.601562 185.175781 83.265625 180.574219 81.921875 173.007812 C 80.574219 180.574219 78.234375 185.175781 76.828125 187.511719 C 76.164062 188.605469 75.464844 189.597656 74.378906 190.574219 C 71.097656 193.535156 67.023438 193.859375 65.277344 193.96875 C 64.882812 193.992188 64.496094 194.003906 64.113281 194.003906 C 58.570312 194.003906 54.265625 191.425781 51.484375 189.765625 C 51.40625 189.722656 51.332031 189.671875 51.257812 189.628906 C 49.207031 188.375 47.644531 187.105469 46.59375 186.171875 C 46.621094 185.933594 46.644531 185.691406 46.671875 185.453125 C 46.5 185.507812 46.332031 185.554688 46.160156 185.605469 C 46.144531 185.777344 46.125 185.949219 46.105469 186.121094 L 46.082031 186.371094 L 46.269531 186.539062 C 47.75 187.851562 49.339844 189.03125 51.003906 190.046875 L 51.085938 190.097656 C 51.136719 190.128906 51.191406 190.160156 51.246094 190.195312 C 54.117188 191.910156 58.445312 194.496094 64.113281 194.496094 C 64.511719 194.496094 64.914062 194.484375 65.308594 194.457031 C 66.925781 194.355469 71.214844 194.09375 74.707031 190.9375 C 75.898438 189.867188 76.632812 188.78125 77.25 187.765625 C 79.304688 184.351562 80.871094 180.238281 81.921875 175.515625 C 82.976562 180.230469 84.574219 184.429688 86.597656 187.765625 C 87.214844 188.785156 87.949219 189.875 89.128906 190.9375 C 92.625 194.09375 96.917969 194.355469 98.535156 194.457031 C 98.929688 194.480469 99.332031 194.496094 99.726562 194.496094 C 105.414062 194.496094 109.742188 191.902344 112.605469 190.1875 C 112.957031 189.980469 113.320312 189.75 113.71875 189.488281 C 115.054688 188.613281 116.316406 187.648438 117.570312 186.539062 L 117.761719 186.375 L 117.734375 186.121094 Z M 117.714844 185.929688 " fill-opacity="1" fill-rule="nonzero"/><g clip-path="url(#dc7899fdd9)"><path fill="#0a1016" d="M 135.71875 127.226562 C 133.566406 101.84375 128.417969 80.246094 123.085938 63.332031 C 121.679688 62.660156 119.414062 61.617188 116.566406 60.480469 C 109.335938 57.597656 106.507812 57.351562 102.5 54.886719 C 100.738281 53.804688 98.234375 51.976562 95.675781 48.882812 C 95.238281 49.261719 94.785156 49.648438 94.316406 50.035156 C 95.859375 51.40625 96.722656 53.300781 97.519531 55.101562 C 97.519531 54.996094 97.523438 54.886719 97.523438 54.785156 C 105.003906 62.167969 89.433594 120.789062 83.027344 130.3125 C 82.886719 130.628906 82.730469 130.910156 82.539062 131.136719 C 82.507812 131.1875 82.476562 131.238281 82.445312 131.292969 C 82.457031 131.261719 82.472656 131.226562 82.484375 131.195312 C 82.082031 131.628906 81.535156 131.8125 80.703125 131.480469 C 80.703125 131.480469 55.796875 83.496094 65.613281 54.785156 C 65.613281 54.90625 65.617188 55.035156 65.617188 55.160156 C 66.464844 53.171875 68.035156 51.546875 69.171875 49.738281 C 68.832031 49.453125 68.488281 49.164062 68.160156 48.882812 C 65.597656 51.976562 63.09375 53.804688 61.332031 54.886719 C 57.332031 57.351562 54.507812 57.597656 47.277344 60.480469 C 44.421875 61.617188 42.160156 62.660156 40.75 63.332031 C 35.425781 80.246094 30.273438 101.84375 28.117188 127.226562 C 26.433594 147.027344 26.949219 164.699219 28.324219 179.519531 C 28.488281 179.519531 28.65625 179.523438 28.820312 179.523438 C 33.6875 179.5625 38.550781 179.609375 43.417969 179.648438 C 43.726562 179.652344 44.042969 179.652344 44.351562 179.65625 C 43.964844 170.359375 43.910156 161.992188 44.011719 154.742188 C 44.097656 149.101562 44.242188 140.222656 45.1875 128.546875 C 45.925781 119.378906 46.945312 111.207031 47.984375 104.230469 C 48.476562 105.46875 49.144531 107.285156 49.824219 109.519531 C 52.433594 118.128906 52.722656 125.007812 52.777344 127.324219 C 52.855469 130.664062 52.644531 133.183594 52.523438 134.550781 C 51.273438 148.699219 47.867188 175.082031 47.277344 179.65625 C 47.050781 181.828125 46.828125 184 46.59375 186.171875 C 47.644531 187.105469 49.207031 188.375 51.257812 189.628906 C 51.332031 189.671875 51.40625 189.722656 51.484375 189.765625 C 54.457031 191.539062 59.167969 194.363281 65.277344 193.964844 C 67.023438 193.859375 71.101562 193.535156 74.378906 190.574219 C 75.464844 189.597656 76.167969 188.601562 76.828125 187.507812 C 78.234375 185.175781 80.574219 180.574219 81.921875 173.007812 C 83.265625 180.574219 85.601562 185.175781 87.015625 187.507812 C 87.679688 188.601562 88.375 189.597656 89.457031 190.574219 C 92.742188 193.535156 96.816406 193.859375 98.566406 193.964844 C 104.671875 194.363281 109.390625 191.539062 112.351562 189.765625 C 112.734375 189.539062 113.097656 189.308594 113.445312 189.078125 C 115.082031 188.011719 116.347656 186.964844 117.246094 186.171875 C 117.019531 184 116.792969 181.828125 116.566406 179.65625 C 115.96875 175.082031 112.566406 148.699219 111.320312 134.550781 C 111.203125 133.183594 110.980469 130.664062 111.0625 127.324219 C 111.117188 125.007812 111.414062 118.128906 114.019531 109.519531 C 114.699219 107.285156 115.363281 105.472656 115.851562 104.230469 C 116.898438 111.207031 117.914062 119.378906 118.65625 128.546875 C 119.597656 140.222656 119.746094 149.101562 119.828125 154.742188 C 119.9375 161.992188 119.875 170.359375 119.484375 179.65625 C 119.757812 179.65625 120.035156 179.652344 120.308594 179.652344 C 125.175781 179.609375 130.039062 179.5625 134.898438 179.523438 C 135.105469 179.523438 135.3125 179.519531 135.519531 179.519531 C 136.894531 164.699219 137.402344 147.027344 135.71875 127.226562 Z M 135.71875 127.226562 " fill-opacity="1" fill-rule="nonzero"/></g><path fill="#2e2829" d="M 65.789062 54.785156 C 63.722656 58.191406 61.117188 63.464844 60.085938 70.25 C 59.066406 76.984375 59.832031 83.683594 64.367188 96.5 C 67.550781 105.496094 72.28125 117.640625 80.519531 131.292969 C 77.117188 123.058594 74.152344 113.464844 71.5 102.605469 C 67.015625 84.285156 65.773438 67.882812 65.792969 54.78125 Z M 65.789062 54.785156 " fill-opacity="1" fill-rule="nonzero"/><path fill="#2e2829" d="M 97.523438 54.785156 C 97.546875 67.882812 96.300781 84.285156 91.816406 102.605469 C 89.160156 113.464844 85.84375 123.058594 82.445312 131.292969 C 90.679688 117.640625 95.765625 105.496094 98.953125 96.503906 C 103.484375 83.683594 104.25 76.988281 103.226562 70.25 C 102.203125 63.464844 99.589844 58.191406 97.523438 54.785156 Z M 97.523438 54.785156 " fill-opacity="1" fill-rule="nonzero"/><path fill="#2e2829" d="M 83.011719 164.234375 C 83.011719 164.425781 82.972656 164.609375 82.902344 164.785156 C 82.828125 164.964844 82.722656 165.117188 82.589844 165.253906 C 82.453125 165.386719 82.296875 165.492188 82.121094 165.566406 C 81.945312 165.640625 81.757812 165.675781 81.570312 165.675781 C 81.378906 165.675781 81.191406 165.640625 81.015625 165.566406 C 80.839844 165.492188 80.683594 165.386719 80.550781 165.253906 C 80.414062 165.117188 80.308594 164.964844 80.234375 164.785156 C 80.164062 164.609375 80.125 164.425781 80.125 164.234375 C 80.125 164.042969 80.164062 163.859375 80.234375 163.683594 C 80.308594 163.507812 80.414062 163.351562 80.550781 163.21875 C 80.683594 163.082031 80.839844 162.980469 81.015625 162.90625 C 81.191406 162.832031 81.378906 162.796875 81.570312 162.796875 C 81.757812 162.796875 81.945312 162.832031 82.121094 162.90625 C 82.296875 162.980469 82.453125 163.082031 82.589844 163.21875 C 82.722656 163.351562 82.828125 163.507812 82.902344 163.683594 C 82.972656 163.859375 83.011719 164.042969 83.011719 164.234375 Z M 83.011719 164.234375 " fill-opacity="1" fill-rule="nonzero"/><path fill="#2e2829" d="M 83.300781 151.828125 C 83.300781 152.019531 83.261719 152.203125 83.191406 152.378906 C 83.117188 152.554688 83.011719 152.710938 82.878906 152.84375 C 82.742188 152.980469 82.585938 153.085938 82.410156 153.15625 C 82.234375 153.230469 82.050781 153.265625 81.859375 153.265625 C 81.667969 153.265625 81.484375 153.230469 81.304688 153.15625 C 81.128906 153.085938 80.972656 152.980469 80.839844 152.84375 C 80.703125 152.710938 80.597656 152.554688 80.527344 152.378906 C 80.453125 152.203125 80.417969 152.019531 80.417969 151.828125 C 80.417969 151.636719 80.453125 151.453125 80.527344 151.277344 C 80.597656 151.101562 80.703125 150.945312 80.839844 150.808594 C 80.972656 150.675781 81.128906 150.570312 81.304688 150.496094 C 81.484375 150.425781 81.667969 150.386719 81.859375 150.386719 C 82.050781 150.386719 82.234375 150.425781 82.410156 150.496094 C 82.585938 150.570312 82.742188 150.675781 82.878906 150.808594 C 83.011719 150.945312 83.117188 151.101562 83.191406 151.277344 C 83.261719 151.453125 83.300781 151.636719 83.300781 151.828125 Z M 83.300781 151.828125 " fill-opacity="1" fill-rule="nonzero"/><path fill="#0a1016" d="M 71.933594 70.050781 C 73.480469 69.339844 75.367188 68.25 77.230469 66.589844 C 77.941406 65.957031 78.5625 65.320312 79.09375 64.707031 C 79.601562 64.917969 80.574219 65.230469 81.792969 65.136719 C 82.613281 65.074219 83.265625 64.847656 83.707031 64.652344 C 84.359375 65.425781 85.171875 66.261719 86.148438 67.09375 C 87.746094 68.460938 89.316406 69.398438 90.605469 70.050781 C 91.445312 68.914062 92.859375 66.675781 93.433594 63.507812 C 93.945312 60.714844 93.574219 58.402344 93.257812 57.074219 C 91.960938 57.003906 89.671875 57.074219 87.144531 58.167969 C 85.59375 58.84375 84.445312 59.691406 83.65625 60.382812 C 83.316406 60.175781 82.335938 59.652344 81.003906 59.769531 C 79.929688 59.867188 79.171875 60.347656 78.839844 60.589844 C 78.136719 59.882812 77.105469 59.007812 75.707031 58.28125 C 73.335938 57.039062 71.113281 56.835938 69.863281 56.816406 C 69.460938 58.214844 68.898438 60.898438 69.523438 64.183594 C 70.046875 66.90625 71.167969 68.902344 71.9375 70.050781 Z M 71.933594 70.050781 " fill-opacity="1" fill-rule="nonzero"/></svg>